<?xml version="1.0" standalone="no"?>
<!DOCTYPE svg PUBLIC "-//W3C//DTD SVG 20010904//EN"
 "http://www.w3.org/TR/2001/REC-SVG-20010904/DTD/svg10.dtd">
<svg version="1.0" xmlns="http://www.w3.org/2000/svg"
 width="1536.000000pt" height="1024.000000pt" viewBox="0 0 1536.000000 1024.000000"
 preserveAspectRatio="xMidYMid meet">

<g transform="translate(0.000000,1024.000000) scale(0.100000,-0.100000)"
fill="#000000" stroke="none">
<path d="M3890 6641 c-181 -50 -332 -174 -405 -332 -56 -123 -55 -112 -55
-905 0 -716 0 -733 21 -800 12 -38 23 -72 25 -76 2 -4 25 12 50 35 92 84 202
158 320 216 67 33 132 63 145 66 l24 6 -3 260 c-2 170 1 266 8 279 10 19 21
20 184 20 155 0 175 -2 189 -18 15 -16 17 -49 17 -248 0 -127 4 -223 9 -216 9
15 87 35 102 27 5 -4 9 144 9 384 l0 390 22 15 c18 13 54 16 180 16 145 0 160
-2 178 -20 19 -19 20 -35 22 -347 1 -181 4 -280 5 -220 3 96 6 107 22 107 10
0 32 3 49 6 l31 6 4 -68 c1 -38 4 17 5 122 l2 192 96 73 c202 155 276 209 285
209 5 0 9 -83 9 -190 0 -120 4 -190 10 -190 6 0 10 4 10 9 0 5 15 12 33 16 17
4 39 9 47 11 34 9 138 5 180 -6 34 -9 52 -22 73 -51 16 -22 34 -39 40 -39 7 0
23 -14 37 -32 14 -17 31 -37 38 -44 6 -7 13 -39 14 -71 1 -32 5 124 8 347 6
476 1 591 -31 675 -45 120 -138 237 -244 308 -23 15 -79 42 -125 59 l-85 33
-745 2 c-688 2 -750 1 -810 -16z m1497 -543 c17 -22 21 -54 9 -75 -6 -11 -64
-70 -129 -131 -148 -140 -150 -140 -248 -45 -72 69 -81 91 -53 131 23 34 58
28 110 -20 l45 -42 97 97 c81 81 102 97 128 97 17 0 36 -6 41 -12z"/>
<path d="M7002 6050 c-246 -34 -429 -194 -483 -420 -18 -78 -16 -251 5 -330
55 -205 209 -352 416 -396 137 -29 370 -6 503 50 l37 15 0 275 0 276 -199 0
-199 0 -4 -80 -3 -80 103 0 102 0 0 -135 0 -135 -27 -12 c-16 -6 -77 -12 -138
-12 -142 0 -203 22 -286 103 -84 83 -103 140 -104 306 0 122 2 134 29 192 35
76 104 144 184 181 52 24 68 27 172 27 99 -1 125 -4 190 -28 41 -15 79 -28 83
-29 4 -2 18 26 31 62 13 36 27 72 30 81 5 12 -5 21 -43 38 -108 46 -278 68
-399 51z"/>
<path d="M9353 5938 l-53 -10 0 -99 0 -99 -65 0 -65 0 0 -44 c0 -24 -3 -58 -6
-75 l-6 -31 65 0 65 0 4 -252 c4 -207 8 -261 22 -298 36 -97 109 -136 246
-134 47 1 97 6 113 12 26 11 27 14 27 87 l0 76 -37 -8 c-96 -20 -155 2 -172
64 -6 21 -11 131 -11 246 l0 207 110 0 110 0 0 75 0 75 -110 0 -110 0 0 110 0
110 -37 -1 c-21 -1 -62 -6 -90 -11z"/>
<path d="M7867 5735 c-91 -19 -177 -59 -177 -82 0 -10 11 -41 25 -70 l24 -52
28 14 c50 26 172 48 235 42 92 -8 131 -43 143 -129 l7 -48 -95 0 c-285 0 -431
-94 -430 -275 0 -142 81 -226 232 -241 96 -11 213 27 265 85 27 30 33 27 41
-24 l6 -46 82 3 82 3 3 175 c4 252 -10 455 -33 504 -27 56 -80 103 -144 127
-72 27 -202 33 -294 14z m281 -521 c3 -85 -11 -109 -90 -148 -61 -30 -142 -35
-189 -10 -55 28 -70 102 -32 161 29 45 126 72 243 70 l65 -2 3 -71z"/>
<path d="M8702 5735 c-134 -30 -212 -116 -212 -232 0 -141 62 -196 300 -267
98 -29 130 -55 130 -105 0 -97 -179 -121 -337 -45 l-60 29 -21 -55 c-12 -30
-24 -63 -28 -73 -5 -13 5 -22 47 -42 91 -41 183 -58 285 -51 150 9 240 57 288
153 24 49 21 148 -6 203 -37 73 -93 104 -284 159 -96 28 -124 51 -124 102 0
34 5 42 33 59 57 35 193 24 309 -25 13 -5 20 6 39 65 27 83 29 79 -71 111 -85
27 -207 33 -288 14z"/>
<path d="M10073 5735 c-214 -60 -330 -251 -295 -487 21 -143 88 -247 199 -305
101 -53 204 -65 322 -38 155 37 266 146 301 297 16 73 12 199 -10 269 -35 113
-137 219 -244 253 -72 24 -208 30 -273 11z m230 -177 c25 -14 53 -42 71 -71
26 -42 30 -61 34 -135 5 -99 -6 -149 -44 -209 -39 -60 -94 -88 -174 -88 -85 0
-133 24 -172 84 -40 63 -51 113 -46 206 5 89 26 141 76 188 62 59 173 70 255
25z"/>
<path d="M10950 5737 c-73 -17 -130 -48 -167 -91 -43 -48 -57 -96 -50 -173 8
-110 67 -164 231 -214 153 -47 177 -59 192 -96 17 -40 6 -75 -33 -100 -21 -14
-46 -18 -113 -17 -80 1 -125 13 -231 58 -13 6 -21 -7 -42 -61 l-25 -68 27 -18
c14 -9 58 -27 96 -40 99 -31 274 -30 357 2 77 30 133 86 152 152 20 65 20 83
1 146 -27 92 -95 136 -298 194 -95 27 -127 50 -127 89 0 42 9 59 41 75 42 22
171 19 239 -6 84 -31 82 -31 103 44 11 37 17 70 14 73 -3 3 -36 17 -72 30 -83
30 -216 39 -295 21z"/>
</g>
</svg>
